HIERARCHY
ROOT Hip
{
	OFFSET	0.0000	0.0000	0.0000
	CHANNELS 6 Xposition Yposition Zposition Xrotation Yrotation Zrotation
	JOINT LowerSpine
	{
		OFFSET	0.0000	10.3005	-5.5740
		CHANNELS 3 Xrotation Yrotation Zrotation
		JOINT MiddleSpine
		{
			OFFSET	0.0000	9.4000	0.4911
			CHANNELS 3 Xrotation Yrotation Zrotation
			JOINT Chest
			{
				OFFSET	0.0000	11.6313	-2.5890
				CHANNELS 3 Xrotation Yrotation Zrotation
				JOINT Neck
				{
					OFFSET	0.0000	26.2109	-0.5451
					CHANNELS 3 Xrotation Yrotation Zrotation
					JOINT Head
					{
						OFFSET	-0.0001	14.8016	4.0260
						CHANNELS 3 Xrotation Yrotation Zrotation
						End Site
						{
							OFFSET	0.0001	20.6815	0.6174
						}
					}
				}
				JOINT LClavicle
				{
					OFFSET	2.6462	25.2948	8.6662
					CHANNELS 3 Xrotation Yrotation Zrotation
					JOINT LShoulder
					{
						OFFSET	15.4595	3.6282	-5.8708
						CHANNELS 3 Xrotation Yrotation Zrotation
						JOINT LForearm
						{
							OFFSET	32.8390	-0.1164	-0.2846
							CHANNELS 3 Xrotation Yrotation Zrotation
							JOINT LHand
							{
								OFFSET	27.3947	0.0795	-0.1641
								CHANNELS 3 Xrotation Yrotation Zrotation
								JOINT LFinger1
								{
									OFFSET	10.6174	0.9286	2.9490
									CHANNELS 3 Xrotation Yrotation Zrotation
									JOINT LFinger11
									{
										OFFSET	3.9715	-0.9684	0.6998
										CHANNELS 3 Xrotation Yrotation Zrotation
										JOINT LFinger12
										{
											OFFSET	2.7112	-0.6613	0.4779
											CHANNELS 3 Xrotation Yrotation Zrotation
											End Site
											{
												OFFSET	1.9293	-0.5759	0.3129
											}
										}
									}
								}
								JOINT LFinger2
								{
									OFFSET	10.7758	1.0723	0.2567
									CHANNELS 3 Xrotation Yrotation Zrotation
									JOINT LFinger21
									{
										OFFSET	4.9105	0.0137	-0.0290
										CHANNELS 3 Xrotation Yrotation Zrotation
										JOINT LFinger22
										{
											OFFSET	2.7219	0.0084	-0.0166
											CHANNELS 3 Xrotation Yrotation Zrotation
											End Site
											{
												OFFSET	2.4447	-0.1726	0.0033
											}
										}
									}
								}
								JOINT LFinger3
								{
									OFFSET	10.2124	0.7156	-2.4161
									CHANNELS 3 Xrotation Yrotation Zrotation
									JOINT LFinger31
									{
										OFFSET	4.4557	-0.2256	-0.2790
										CHANNELS 3 Xrotation Yrotation Zrotation
										JOINT LFinger32
										{
											OFFSET	2.5391	-0.1278	-0.1595
											CHANNELS 3 Xrotation Yrotation Zrotation
											End Site
											{
												OFFSET	2.2450	-0.2760	-0.1061
											}
										}
									}
								}
								JOINT LFinger4
								{
									OFFSET	9.4767	-0.7201	-4.1725
									CHANNELS 3 Xrotation Yrotation Zrotation
									JOINT LFinger41
									{
										OFFSET	2.7407	-0.5715	-0.7566
										CHANNELS 3 Xrotation Yrotation Zrotation
										JOINT LFinger42
										{
											OFFSET	2.0098	-0.4185	-0.5552
											CHANNELS 3 Xrotation Yrotation Zrotation
											End Site
											{
												OFFSET	1.7838	-0.4901	-0.4093
											}
										}
									}
								}
								JOINT LFinger0
								{
									OFFSET	2.1964	-1.6624	1.6651
									CHANNELS 3 Xrotation Yrotation Zrotation
									JOINT LFinger01
									{
										OFFSET	4.0893	-1.3429	3.0830
										CHANNELS 3 Xrotation Yrotation Zrotation
										JOINT LFinger02
										{
											OFFSET	2.6927	-0.9636	1.9400
											CHANNELS 3 Xrotation Yrotation Zrotation
											End Site
											{
												OFFSET	1.9801	-0.6816	1.3559
											}
										}
									}
								}
							}
						}
					}
				}
				JOINT RClavicle
				{
					OFFSET	-2.6462	25.2948	8.6661
					CHANNELS 3 Xrotation Yrotation Zrotation
					JOINT RShoulder
					{
						OFFSET	-15.4622	3.6288	-5.8718
						CHANNELS 3 Xrotation Yrotation Zrotation
						JOINT RForearm
						{
							OFFSET	-32.8390	-0.1164	-0.2846
							CHANNELS 3 Xrotation Yrotation Zrotation
							JOINT RHand
							{
								OFFSET	-27.3947	0.0795	-0.1641
								CHANNELS 3 Xrotation Yrotation Zrotation
								JOINT RFinger1
								{
									OFFSET	-10.6175	0.9287	2.9490
									CHANNELS 3 Xrotation Yrotation Zrotation
									JOINT RFinger11
									{
										OFFSET	-3.9715	-0.9684	0.6998
										CHANNELS 3 Xrotation Yrotation Zrotation
										JOINT RFinger12
										{
											OFFSET	-2.7112	-0.6614	0.4779
											CHANNELS 3 Xrotation Yrotation Zrotation
											End Site
											{
												OFFSET	-1.9293	-0.5759	0.3129
											}
										}
									}
								}
								JOINT RFinger2
								{
									OFFSET	-10.7758	1.0724	0.2568
									CHANNELS 3 Xrotation Yrotation Zrotation
									JOINT RFinger21
									{
										OFFSET	-4.9105	0.0137	-0.0290
										CHANNELS 3 Xrotation Yrotation Zrotation
										JOINT RFinger22
										{
											OFFSET	-2.7219	0.0083	-0.0167
											CHANNELS 3 Xrotation Yrotation Zrotation
											End Site
											{
												OFFSET	-2.4447	-0.1726	0.0033
											}
										}
									}
								}
								JOINT RFinger3
								{
									OFFSET	-10.2124	0.7157	-2.4161
									CHANNELS 3 Xrotation Yrotation Zrotation
									JOINT RFinger31
									{
										OFFSET	-4.4557	-0.2256	-0.2790
										CHANNELS 3 Xrotation Yrotation Zrotation
										JOINT RFinger32
										{
											OFFSET	-2.5391	-0.1277	-0.1595
											CHANNELS 3 Xrotation Yrotation Zrotation
											End Site
											{
												OFFSET	-2.2450	-0.2760	-0.1061
											}
										}
									}
								}
								JOINT RFinger4
								{
									OFFSET	-9.4767	-0.7201	-4.1725
									CHANNELS 3 Xrotation Yrotation Zrotation
									JOINT RFinger41
									{
										OFFSET	-2.7407	-0.5715	-0.7566
										CHANNELS 3 Xrotation Yrotation Zrotation
										JOINT RFinger42
										{
											OFFSET	-2.0097	-0.4184	-0.5552
											CHANNELS 3 Xrotation Yrotation Zrotation
											End Site
											{
												OFFSET	-1.7838	-0.4901	-0.4092
											}
										}
									}
								}
								JOINT RFinger0
								{
									OFFSET	-2.1964	-1.6623	1.6649
									CHANNELS 3 Xrotation Yrotation Zrotation
									JOINT RFinger01
									{
										OFFSET	-4.0892	-1.3431	3.0832
										CHANNELS 3 Xrotation Yrotation Zrotation
										JOINT RFinger02
										{
											OFFSET	-2.6927	-0.9634	1.9400
											CHANNELS 3 Xrotation Yrotation Zrotation
											End Site
											{
												OFFSET	-1.9801	-0.6816	1.3559
											}
										}
									}
								}
							}
						}
					}
				}
			}
		}
	}
	JOINT RThigh
	{
		OFFSET	-11.0190	4.6561	-0.9082
		CHANNELS 3 Xrotation Yrotation Zrotation
		JOINT RShin
		{
			OFFSET	-0.8817	-47.9274	0.0000
			CHANNELS 3 Xrotation Yrotation Zrotation
			JOINT RFoot
			{
				OFFSET	0.0000	-47.0618	0.0000
				CHANNELS 3 Xrotation Yrotation Zrotation
				JOINT RToe
				{
					OFFSET	0.0000	-5.1725	10.8164
					CHANNELS 3 Xrotation Yrotation Zrotation
					End Site
					{
						OFFSET	0.0000	0.0000	7.2563
					}
				}
			}
		}
	}
	JOINT LThigh
	{
		OFFSET	11.0188	4.6564	-0.9083
		CHANNELS 3 Xrotation Yrotation Zrotation
		JOINT LShin
		{
			OFFSET	0.8818	-47.9278	0.0000
			CHANNELS 3 Xrotation Yrotation Zrotation
			JOINT LFoot
			{
				OFFSET	0.0000	-47.0618	0.0000
				CHANNELS 3 Xrotation Yrotation Zrotation
				JOINT LToe
				{
					OFFSET	0.0000	-5.1725	10.8164
					CHANNELS 3 Xrotation Yrotation Zrotation
					End Site
					{
						OFFSET	0.0000	0.0000	7.2563
					}
				}
			}
		}
	}
}
MOTION
Frames:	7
Frame Time: 0.0333333000
	8.0641	98.7881	-88.6232	-9.272185	1.055521	-0.465250	0.000000	0.000000	0.000000	1.547377	0.523877	0.285467	5.148909	1.774778	0.896015	0.000000	0.000000	0.000000	1.348936	-3.003618	0.264847	0.000000	0.000000	-16.247720	-35.033730	47.232930	-55.383350	0.000000	-0.071407	0.000000	0.000000	0.000000	0.000000	0.000000	0.000000	0.000000	0.000000	0.000000	0.000000	0.000000	0.000000	0.000000	0.000000	0.000000	0.000000	0.000000	0.000000	0.000000	0.000000	0.000000	0.000000	0.000000	0.000000	0.000000	0.000000	0.000000	0.000000	0.000000	0.000000	0.000000	0.000000	0.000000	0.000000	0.000000	0.000000	0.000000	0.000000	0.000000	0.000000	0.000000	0.000000	0.000000	0.000000	0.000000	0.000000	0.000000	0.000000	0.000000	0.000000	0.000000	14.965470	14.006720	17.340960	59.332570	0.000000	22.346250	0.000000	-35.253440	-4.874341	3.012087	0.000000	0.000000	0.000000	0.000000	0.000000	0.000000	0.000000	0.000000	0.000000	0.000000	0.000000	0.000000	0.000000	0.000000	0.000000	0.000000	0.000000	0.000000	0.000000	0.000000	0.000000	0.000000	0.000000	0.000000	0.000000	0.000000	0.000000	0.000000	0.000000	0.000000	0.000000	0.000000	0.000000	0.000000	0.000000	0.000000	0.000000	0.000000	0.000000	0.000000	0.000000	0.000000	0.000000	0.000000	0.000000	4.898367	1.217011	-1.153587	9.057528	0.000001	0.000000	-2.582121	-1.835765	-0.929756	0.000000	0.000000	0.000000	9.676100	0.738714	2.965446	0.990500	0.000000	0.000000	-1.307033	0.482397	0.235296	0.000000	0.000000	0.000000
	8.3283	98.7647	-88.9752	-8.455769	2.177140	-0.524596	0.000000	0.000000	0.000000	1.558305	0.418081	0.284511	5.187039	1.422502	0.903551	0.000000	0.000000	0.000000	0.401908	-3.475099	0.420223	0.000000	0.000000	-15.972530	-31.281410	41.120940	-58.963480	0.000000	-0.030933	0.000000	0.000000	0.000000	0.000000	0.000000	0.000000	0.000000	0.000000	0.000000	0.000000	0.000000	0.000000	0.000000	0.000000	0.000000	0.000000	0.000000	0.000000	0.000000	0.000000	0.000000	0.000000	0.000000	0.000000	0.000000	0.000000	0.000000	0.000000	0.000000	0.000000	0.000000	0.000000	0.000000	0.000000	0.000000	0.000000	0.000000	0.000000	0.000000	0.000000	0.000000	0.000000	0.000000	0.000000	0.000000	0.000000	0.000000	0.000000	0.000000	0.000000	0.000000	14.538160	15.632270	17.197040	57.801920	0.000000	24.528870	0.000000	-39.260680	-2.232617	2.009579	0.000000	0.000000	0.000000	0.000000	0.000000	0.000000	0.000000	0.000000	0.000000	0.000000	0.000000	0.000000	0.000000	0.000000	0.000000	0.000000	0.000000	0.000000	0.000000	0.000000	0.000000	0.000000	0.000000	0.000000	0.000000	0.000000	0.000000	0.000000	0.000000	0.000000	0.000000	0.000000	0.000000	0.000000	0.000000	0.000000	0.000000	0.000000	0.000000	0.000000	0.000000	0.000000	0.000000	0.000000	0.000000	4.118019	0.779195	-1.165564	9.292591	0.000001	0.000000	-2.890555	-1.428252	-0.736619	0.000000	0.000000	0.000000	8.364613	0.669492	2.970223	1.165405	0.000000	0.000000	-1.555453	0.581417	0.285786	0.000000	0.000000	0.000000
	8.5338	98.7842	-89.1499	-7.961738	2.243485	-0.694455	0.000000	0.000000	0.000000	1.553455	0.337496	0.320041	5.171152	1.157727	1.030439	0.000000	0.000000	0.000000	-0.002868	-3.145778	0.443054	0.000000	0.000000	-15.789130	-27.094720	33.866660	-61.235760	0.000000	-0.271410	0.000000	0.000000	0.000000	0.000000	0.000000	0.000000	0.000000	0.000000	0.000000	0.000000	0.000000	0.000000	0.000000	0.000000	0.000000	0.000000	0.000000	0.000000	0.000000	0.000000	0.000000	0.000000	0.000000	0.000000	0.000000	0.000000	0.000000	0.000000	0.000000	0.000000	0.000000	0.000000	0.000000	0.000000	0.000000	0.000000	0.000000	0.000000	0.000000	0.000000	0.000000	0.000000	0.000000	0.000000	0.000000	0.000000	0.000000	0.000000	0.000000	0.000000	0.000000	14.282960	15.773070	17.582380	56.429630	0.000000	24.699440	0.000000	-41.084190	-1.393226	2.417966	0.000000	0.000000	0.000000	0.000000	0.000000	0.000000	0.000000	0.000000	0.000000	0.000000	0.000000	0.000000	0.000000	0.000000	0.000000	0.000000	0.000000	0.000000	0.000000	0.000000	0.000000	0.000000	0.000000	0.000000	0.000000	0.000000	0.000000	0.000000	0.000000	0.000000	0.000000	0.000000	0.000000	0.000000	0.000000	0.000000	0.000000	0.000000	0.000000	0.000000	0.000000	0.000000	0.000000	0.000000	0.000000	3.359554	-0.139159	-1.117623	10.157760	0.000001	0.000000	-2.768407	-0.442673	-0.228187	0.000000	0.000000	0.000000	7.575521	0.593880	2.937053	1.872952	0.000000	0.000000	-2.300051	0.120455	0.058882	0.000000	0.000000	0.000000
	8.4889	98.7097	-89.0447	-7.943231	0.940507	-0.887492	0.000000	0.000000	0.000000	1.565022	0.299706	0.375170	5.209231	1.037978	1.217765	0.000000	0.000000	0.000000	0.040976	-1.826721	0.293929	0.000000	0.000000	-15.672820	-19.031540	20.639800	-63.569270	0.000000	-1.912061	0.000000	0.000000	0.000000	0.000000	0.000000	0.000000	0.000000	0.000000	0.000000	0.000000	0.000000	0.000000	0.000000	0.000000	0.000000	0.000000	0.000000	0.000000	0.000000	0.000000	0.000000	0.000000	0.000000	0.000000	0.000000	0.000000	0.000000	0.000000	0.000000	0.000000	0.000000	0.000000	0.000000	0.000000	0.000000	0.000000	0.000000	0.000000	0.000000	0.000000	0.000000	0.000000	0.000000	0.000000	0.000000	0.000000	0.000000	0.000000	0.000000	0.000000	0.000000	14.229810	13.909300	18.438390	55.461110	0.000000	22.750230	0.000000	-42.667820	0.206597	2.963099	0.000000	0.000000	0.000000	0.000000	0.000000	0.000000	0.000000	0.000000	0.000000	0.000000	0.000000	0.000000	0.000000	0.000000	0.000000	0.000000	0.000000	0.000000	0.000000	0.000000	0.000000	0.000000	0.000000	0.000000	0.000000	0.000000	0.000000	0.000000	0.000000	0.000000	0.000000	0.000000	0.000000	0.000000	0.000000	0.000000	0.000000	0.000000	0.000000	0.000000	0.000000	0.000000	0.000000	0.000000	0.000000	3.066544	-0.990168	-1.027392	10.046370	0.000001	0.000000	-2.491168	0.246893	0.126318	0.000000	0.000000	0.000000	7.956524	0.666564	2.921231	1.939404	0.000000	0.000000	-2.939519	-0.342338	-0.175901	0.000000	0.000000	0.000000
	8.3182	98.6135	-88.8048	-8.285328	-0.788693	-0.981406	0.000000	0.000000	0.000000	1.616458	0.297559	0.396939	5.380383	1.034500	1.289474	0.000000	0.000000	0.000000	0.289634	-0.264719	0.183134	0.000000	0.000000	-15.469370	-7.563031	-0.133851	-63.725070	0.000000	-5.859738	0.000000	0.000000	0.000000	0.000000	0.000000	0.000000	0.000000	0.000000	0.000000	0.000000	0.000000	0.000000	0.000000	0.000000	0.000000	0.000000	0.000000	0.000000	0.000000	0.000000	0.000000	0.000000	0.000000	0.000000	0.000000	0.000000	0.000000	0.000000	0.000000	0.000000	0.000000	0.000000	0.000000	0.000000	0.000000	0.000000	0.000000	0.000000	0.000000	0.000000	0.000000	0.000000	0.000000	0.000000	0.000000	0.000000	0.000000	0.000000	0.000000	0.000000	0.000000	14.247340	10.813130	18.679970	55.160740	0.000000	19.946750	0.000000	-42.219210	0.914534	4.155084	0.000000	0.000000	0.000000	0.000000	0.000000	0.000000	0.000000	0.000000	0.000000	0.000000	0.000000	0.000000	0.000000	0.000000	0.000000	0.000000	0.000000	0.000000	0.000000	0.000000	0.000000	0.000000	0.000000	0.000000	0.000000	0.000000	0.000000	0.000000	0.000000	0.000000	0.000000	0.000000	0.000000	0.000000	0.000000	0.000000	0.000000	0.000000	0.000000	0.000000	0.000000	0.000000	0.000000	0.000000	0.000000	3.363375	-1.457149	-1.068337	8.760614	0.000001	0.000000	-1.774501	0.549712	0.270570	0.000000	0.000000	0.000000	9.149863	0.757483	2.831216	0.979659	0.000000	0.000000	-2.953725	-0.154931	-0.076654	0.000000	0.000000	0.000000
	8.2266	98.6157	-88.5776	-8.712790	-2.058185	-0.989422	0.000000	0.000000	0.000000	1.704425	0.313722	0.371822	5.673736	1.087795	1.202017	0.000000	0.000000	0.000000	0.351226	0.931293	0.130666	0.000000	0.000000	-15.121390	5.293404	-20.887380	-59.387230	0.000000	-10.948940	0.000000	0.000000	0.000000	0.000000	0.000000	0.000000	0.000000	0.000000	0.000000	0.000000	0.000000	0.000000	0.000000	0.000000	0.000000	0.000000	0.000000	0.000000	0.000000	0.000000	0.000000	0.000000	0.000000	0.000000	0.000000	0.000000	0.000000	0.000000	0.000000	0.000000	0.000000	0.000000	0.000000	0.000000	0.000000	0.000000	0.000000	0.000000	0.000000	0.000000	0.000000	0.000000	0.000000	0.000000	0.000000	0.000000	0.000000	0.000000	0.000000	0.000000	0.000000	14.222610	8.015167	18.276280	55.141470	0.000000	17.320220	0.000000	-39.662520	0.526500	6.117325	0.000000	0.000000	0.000000	0.000000	0.000000	0.000000	0.000000	0.000000	0.000000	0.000000	0.000000	0.000000	0.000000	0.000000	0.000000	0.000000	0.000000	0.000000	0.000000	0.000000	0.000000	0.000000	0.000000	0.000000	0.000000	0.000000	0.000000	0.000000	0.000000	0.000000	0.000000	0.000000	0.000000	0.000000	0.000000	0.000000	0.000000	0.000000	0.000000	0.000000	0.000000	0.000000	0.000000	0.000000	0.000000	3.822067	-1.178194	-1.222633	7.735463	0.000001	0.000000	-1.162292	0.717930	0.352985	0.000000	0.000000	0.000000	10.193470	0.674227	2.666303	0.101579	0.000000	0.000000	-2.455662	0.242881	0.125983	0.000000	0.000000	0.000000
	8.2498	98.6773	-88.4640	-9.001799	-2.796675	-0.984880	0.000000	0.000000	0.000000	1.831038	0.334311	0.359812	6.095533	1.158189	1.156609	0.000000	0.000000	0.000000	0.514207	0.924601	0.660439	0.000000	0.000000	-14.712670	16.762010	-34.277950	-52.411710	0.000000	-14.624740	0.000000	0.000000	0.000000	0.000000	0.000000	0.000000	0.000000	0.000000	0.000000	0.000000	0.000000	0.000000	0.000000	0.000000	0.000000	0.000000	0.000000	0.000000	0.000000	0.000000	0.000000	0.000000	0.000000	0.000000	0.000000	0.000000	0.000000	0.000000	0.000000	0.000000	0.000000	0.000000	0.000000	0.000000	0.000000	0.000000	0.000000	0.000000	0.000000	0.000000	0.000000	0.000000	0.000000	0.000000	0.000000	0.000000	0.000000	0.000000	0.000000	0.000000	0.000000	14.079030	6.830820	18.178690	54.655190	0.000000	16.021030	0.000000	-38.713630	0.499161	7.575588	0.000000	0.000000	0.000000	0.000000	0.000000	0.000000	0.000000	0.000000	0.000000	0.000000	0.000000	0.000000	0.000000	0.000000	0.000000	0.000000	0.000000	0.000000	0.000000	0.000000	0.000000	0.000000	0.000000	0.000000	0.000000	0.000000	0.000000	0.000000	0.000000	0.000000	0.000000	0.000000	0.000000	0.000000	0.000000	0.000000	0.000000	0.000000	0.000000	0.000000	0.000000	0.000000	0.000000	0.000000	0.000000	3.994117	-0.650783	-1.331226	7.752982	0.000001	0.000000	-1.152639	0.855891	0.421319	0.000000	0.000000	0.000000	10.620890	0.545880	2.509261	-0.064173	0.000000	0.000000	-1.993186	0.163068	0.080060	0.000000	0.000000	0.000000
